<svg width="30" height="31" viewBox="0 0 30 31" fill="none" xmlns="http://www.w3.org/2000/svg">
<rect y="0.5" width="30" height="30" rx="8" fill="#4CAF50"/>
<path d="M17.0913 22.1078C17.0913 22.2118 17.0509 22.3116 16.9791 22.3851C16.9073 22.4586 16.8099 22.5 16.7083 22.5H12.6226C12.521 22.5 12.4236 22.4586 12.3518 22.3851C12.2799 22.3116 12.2396 22.2118 12.2396 22.1078C12.2396 22.0038 12.2799 21.904 12.3518 21.8305C12.4236 21.757 12.521 21.7156 12.6226 21.7156H16.7083C16.8099 21.7156 16.9073 21.757 16.9791 21.8305C17.0509 21.904 17.0913 22.0038 17.0913 22.1078ZM20.5456 19.9509C20.4681 20.0906 20.3558 20.2066 20.22 20.287C20.0842 20.3674 19.93 20.4093 19.7732 20.4085H9.55836C9.40126 20.4081 9.24702 20.3654 9.11119 20.2846C8.97536 20.2038 8.86274 20.0877 8.78467 19.9481C8.7066 19.8086 8.66584 19.6504 8.66651 19.4895C8.66718 19.3287 8.70924 19.1709 8.78847 19.032C9.14915 18.3954 9.68604 16.6006 9.68604 14.2647C9.68604 12.9126 10.2107 11.6159 11.1445 10.6598C12.0783 9.70374 13.3448 9.16663 14.6654 9.16663C15.9861 9.16663 17.2526 9.70374 18.1864 10.6598C19.1202 11.6159 19.6448 12.9126 19.6448 14.2647C19.6448 16.6 20.1824 18.3954 20.5437 19.032C20.6238 19.1712 20.6662 19.3297 20.6665 19.4912C20.6668 19.6527 20.6251 19.8114 20.5456 19.9509ZM19.881 19.4281C19.3978 18.5784 18.8788 16.5967 18.8788 14.2647C18.8788 13.1206 18.4349 12.0234 17.6447 11.2144C16.8546 10.4054 15.7829 9.95094 14.6654 9.95094C13.548 9.95094 12.4763 10.4054 11.6862 11.2144C10.896 12.0234 10.4521 13.1206 10.4521 14.2647C10.4521 16.5973 9.93245 18.5784 9.4492 19.4281C9.43799 19.4479 9.43209 19.4705 9.43209 19.4934C9.43209 19.5164 9.43799 19.5389 9.4492 19.5588C9.45971 19.5788 9.47539 19.5955 9.49453 19.607C9.51366 19.6185 9.53552 19.6245 9.55772 19.6241H19.7725C19.7947 19.6245 19.8166 19.6185 19.8357 19.607C19.8549 19.5955 19.8705 19.5788 19.881 19.5588C19.8923 19.5389 19.8982 19.5164 19.8982 19.4934C19.8982 19.4705 19.8923 19.4479 19.881 19.4281Z" fill="white"/>
</svg>
